<svg xmlns="http://www.w3.org/2000/svg" xmlns:xlink="http://www.w3.org/1999/xlink" width="332" zoomAndPan="magnify" viewBox="0 0 249 73.499998" height="98" preserveAspectRatio="xMidYMid meet" version="1.0"><defs><g/><clipPath id="c59c0600e7"><path d="M 108.425781 0.0820312 L 140.457031 0.0820312 L 140.457031 34.347656 L 108.425781 34.347656 Z M 108.425781 0.0820312 " clip-rule="nonzero"/></clipPath></defs><g clip-path="url(#c59c0600e7)"><path fill="#ffffff" d="M 129.761719 26.246094 C 129.628906 26.273438 129.5 26.1875 129.476562 26.054688 C 129.449219 25.921875 129.535156 25.792969 129.667969 25.765625 C 129.847656 25.734375 130.152344 25.699219 130.527344 25.652344 C 131.859375 25.5 134.132812 25.234375 134.191406 24.6875 L 134.199219 24.609375 C 134.277344 23.902344 134.289062 23.773438 135.207031 23.597656 L 135.261719 23.589844 C 136.324219 23.386719 137.773438 23.109375 138.105469 22.449219 L 138.890625 20.878906 C 139.003906 20.605469 139.09375 20.371094 139.125 20.191406 L 139.125 19.945312 C 139.082031 19.808594 138.914062 19.714844 138.542969 19.660156 C 138.117188 19.597656 137.734375 19.539062 137.332031 19.480469 C 135.464844 19.199219 133.167969 18.855469 131.34375 18.75 C 130.878906 18.726562 130.449219 18.714844 130.066406 18.722656 C 129.6875 18.734375 129.347656 18.761719 129.066406 18.8125 C 128.964844 18.832031 128.863281 18.851562 128.761719 18.871094 C 127.222656 19.164062 125.601562 19.46875 124.125 19.441406 C 123.972656 19.441406 123.839844 19.4375 123.703125 19.433594 C 123.601562 19.433594 123.5 19.429688 123.390625 19.429688 L 123.390625 23.710938 C 123.71875 23.789062 123.996094 23.894531 124.199219 24.023438 C 124.464844 24.191406 124.613281 24.402344 124.613281 24.640625 C 124.613281 24.988281 124.292969 25.273438 123.769531 25.460938 C 123.320312 25.621094 122.710938 25.71875 122.035156 25.71875 C 121.363281 25.71875 120.75 25.621094 120.304688 25.460938 C 119.78125 25.273438 119.457031 24.988281 119.457031 24.640625 C 119.457031 24.398438 119.613281 24.183594 119.886719 24.015625 C 120.09375 23.890625 120.371094 23.78125 120.699219 23.707031 L 120.699219 19.433594 C 120.113281 19.457031 119.550781 19.5 119.054688 19.578125 C 118.53125 19.660156 118.085938 19.78125 117.78125 19.953125 C 117.5625 20.074219 117.503906 20.105469 117.449219 20.136719 C 116.164062 20.863281 115.109375 21.460938 113.445312 21.699219 C 112.5625 21.828125 111.515625 21.992188 110.730469 22.269531 C 110.03125 22.515625 109.550781 22.84375 109.628906 23.304688 C 109.710938 23.75 109.785156 24.1875 109.796875 24.636719 C 109.808594 25.089844 109.753906 25.539062 109.566406 25.984375 C 109.496094 26.144531 109.492188 26.160156 109.488281 26.167969 C 109.109375 27.058594 108.753906 27.890625 109.375 28.316406 C 109.503906 28.402344 109.5625 28.445312 109.625 28.488281 C 110.449219 29.0625 110.988281 29.4375 112.214844 29.351562 C 114.214844 29.207031 115.835938 29.117188 117.472656 29.148438 C 119.113281 29.175781 120.753906 29.328125 122.792969 29.671875 C 122.933594 29.695312 122.980469 29.707031 123.03125 29.714844 C 123.882812 29.859375 124.757812 30.011719 125.589844 29.890625 C 126.257812 29.792969 126.878906 29.65625 127.441406 29.5 C 128.117188 29.3125 128.714844 29.097656 129.214844 28.886719 C 129.402344 28.808594 129.578125 28.738281 129.765625 28.664062 C 130.628906 28.316406 131.695312 27.886719 132.097656 27.480469 C 132.210938 27.363281 132.246094 27.257812 132.160156 27.171875 L 131.058594 26.082031 C 130.894531 26.105469 130.734375 26.121094 130.582031 26.140625 C 130.21875 26.183594 129.925781 26.214844 129.761719 26.246094 Z M 131.363281 19.386719 C 131.449219 19.390625 131.511719 19.460938 131.507812 19.546875 C 131.503906 19.628906 131.429688 19.695312 131.347656 19.691406 C 130.882812 19.664062 130.453125 19.652344 130.0625 19.664062 C 129.679688 19.671875 129.335938 19.699219 129.050781 19.753906 C 128.96875 19.769531 128.890625 19.714844 128.875 19.632812 C 128.859375 19.550781 128.914062 19.46875 128.996094 19.453125 C 129.296875 19.398438 129.65625 19.367188 130.054688 19.359375 C 130.457031 19.347656 130.894531 19.359375 131.363281 19.386719 Z M 123.390625 24.214844 L 123.390625 25.066406 C 123.464844 25.046875 123.539062 25.023438 123.605469 25 C 123.925781 24.886719 124.125 24.757812 124.125 24.640625 C 124.125 24.582031 124.058594 24.511719 123.9375 24.4375 C 123.800781 24.351562 123.617188 24.277344 123.390625 24.214844 Z M 122.902344 25.167969 L 122.902344 1.308594 C 122.902344 0.984375 122.71875 0.765625 122.476562 0.660156 C 122.359375 0.609375 122.230469 0.582031 122.101562 0.578125 C 121.96875 0.574219 121.835938 0.59375 121.710938 0.636719 C 121.441406 0.738281 121.21875 0.960938 121.191406 1.3125 L 121.191406 25.167969 C 121.191406 25.167969 121.191406 25.171875 121.191406 25.171875 C 121.449219 25.210938 121.734375 25.230469 122.035156 25.230469 C 122.34375 25.230469 122.636719 25.207031 122.902344 25.167969 Z M 120.699219 25.074219 L 120.699219 24.207031 C 120.472656 24.269531 120.28125 24.34375 120.144531 24.429688 C 120.019531 24.507812 119.949219 24.582031 119.949219 24.640625 C 119.949219 24.757812 120.148438 24.886719 120.46875 25 C 120.542969 25.027344 120.617188 25.050781 120.699219 25.074219 Z M 123.390625 6.746094 C 123.859375 6.574219 124.265625 6.410156 124.628906 6.269531 C 126.765625 5.417969 127.417969 5.160156 130.152344 6.539062 C 132.042969 7.492188 133.097656 6.886719 134.691406 5.976562 C 134.773438 5.925781 134.859375 5.875 135.039062 5.777344 C 136.761719 4.796875 138.15625 5.222656 139.976562 5.839844 L 139.976562 1.886719 C 139.980469 1.71875 139.945312 1.582031 139.871094 1.480469 C 139.800781 1.378906 139.683594 1.300781 139.523438 1.25 C 138.726562 0.984375 138.011719 0.777344 137.320312 0.746094 C 136.640625 0.714844 135.96875 0.847656 135.234375 1.265625 C 135.207031 1.28125 135.046875 1.371094 134.886719 1.464844 C 133.183594 2.441406 132.054688 3.085938 129.972656 2.039062 C 127.398438 0.738281 126.785156 0.980469 124.773438 1.78125 C 124.375 1.9375 123.921875 2.117188 123.390625 2.3125 Z M 139.976562 6.160156 C 138.183594 5.554688 136.824219 5.113281 135.1875 6.042969 C 135.128906 6.078125 134.984375 6.160156 134.839844 6.242188 C 133.160156 7.203125 132.050781 7.839844 130.015625 6.8125 C 127.40625 5.492188 126.78125 5.742188 124.742188 6.550781 C 124.351562 6.707031 123.90625 6.882812 123.390625 7.070312 L 123.390625 11.597656 C 123.84375 11.429688 124.242188 11.273438 124.59375 11.132812 C 126.761719 10.273438 127.425781 10.011719 130.195312 11.40625 C 132.039062 12.339844 133.074219 11.746094 134.644531 10.847656 C 134.710938 10.808594 134.78125 10.765625 134.992188 10.648438 C 135.769531 10.207031 136.484375 10.046875 137.207031 10.058594 C 137.917969 10.070312 138.621094 10.253906 139.386719 10.5 C 139.511719 10.539062 139.601562 10.539062 139.675781 10.519531 C 139.746094 10.5 139.800781 10.460938 139.847656 10.421875 C 139.890625 10.386719 139.921875 10.351562 139.941406 10.300781 C 139.964844 10.234375 139.976562 10.140625 139.976562 9.996094 Z M 123.390625 1.792969 C 123.84375 1.625 124.242188 1.46875 124.59375 1.328125 C 126.761719 0.464844 127.425781 0.203125 130.195312 1.601562 C 132.039062 2.53125 133.074219 1.9375 134.644531 1.039062 C 134.710938 1 134.78125 0.960938 134.992188 0.839844 C 135.816406 0.371094 136.574219 0.21875 137.34375 0.257812 C 138.097656 0.292969 138.847656 0.511719 139.675781 0.785156 C 139.9375 0.871094 140.132812 1.007812 140.269531 1.199219 C 140.402344 1.386719 140.46875 1.617188 140.464844 1.894531 L 140.464844 9.996094 C 140.464844 10.203125 140.441406 10.351562 140.398438 10.472656 C 140.34375 10.613281 140.269531 10.707031 140.167969 10.792969 C 140.074219 10.871094 139.957031 10.949219 139.800781 10.992188 C 139.648438 11.03125 139.460938 11.035156 139.238281 10.964844 C 138.511719 10.730469 137.847656 10.558594 137.199219 10.546875 C 136.5625 10.535156 135.925781 10.679688 135.234375 11.070312 C 135.207031 11.085938 135.046875 11.179688 134.886719 11.269531 C 133.183594 12.25 132.054688 12.894531 129.972656 11.84375 C 127.398438 10.542969 126.785156 10.789062 124.773438 11.585938 C 124.375 11.746094 123.921875 11.925781 123.390625 12.121094 L 123.390625 18.941406 C 123.503906 18.941406 123.609375 18.945312 123.714844 18.945312 C 123.855469 18.949219 123.996094 18.953125 124.132812 18.953125 C 125.554688 18.980469 127.15625 18.679688 128.671875 18.390625 C 128.773438 18.371094 128.875 18.351562 128.976562 18.335938 C 129.285156 18.277344 129.648438 18.246094 130.054688 18.234375 C 130.457031 18.226562 130.898438 18.238281 131.371094 18.261719 C 133.230469 18.367188 135.53125 18.714844 137.402344 18.996094 C 137.859375 19.0625 138.289062 19.128906 138.613281 19.175781 C 139.109375 19.246094 139.394531 19.402344 139.53125 19.644531 C 139.582031 19.691406 139.613281 19.757812 139.613281 19.828125 L 139.613281 19.882812 C 139.632812 19.988281 139.632812 20.101562 139.613281 20.226562 L 139.605469 24.566406 L 139.613281 25.015625 C 139.625 25.546875 139.539062 25.707031 139.363281 26.03125 C 139.324219 26.105469 139.28125 26.1875 139.246094 26.257812 C 138.808594 27.132812 137.21875 27.4375 136.054688 27.65625 L 136 27.667969 C 135.441406 27.773438 135.433594 27.847656 135.390625 28.25 L 135.382812 28.328125 C 135.339844 28.71875 134.925781 28.992188 134.335938 29.1875 C 133.871094 29.34375 133.289062 29.457031 132.710938 29.546875 L 132.710938 30.976562 L 132.683594 30.976562 C 132.699219 31.023438 132.703125 31.070312 132.691406 31.121094 C 132.53125 31.777344 131.074219 32.363281 129.949219 32.816406 C 129.746094 32.902344 129.550781 32.980469 129.40625 33.039062 C 128.882812 33.257812 128.265625 33.480469 127.574219 33.675781 C 126.988281 33.835938 126.34375 33.976562 125.660156 34.074219 C 124.753906 34.207031 123.839844 34.050781 122.949219 33.898438 L 122.710938 33.859375 C 120.695312 33.515625 119.074219 33.367188 117.464844 33.335938 C 115.855469 33.308594 114.242188 33.398438 112.25 33.539062 C 110.851562 33.640625 110.257812 33.226562 109.34375 32.589844 C 109.246094 32.523438 109.144531 32.453125 109.097656 32.421875 C 108.925781 32.300781 108.796875 32.164062 108.707031 32.007812 C 108.613281 31.855469 108.566406 31.6875 108.546875 31.511719 C 108.527344 31.292969 108.542969 30.929688 108.558594 30.464844 C 108.585938 29.789062 108.625 28.894531 108.566406 27.996094 C 108.425781 27.417969 108.722656 26.714844 109.039062 25.976562 C 109.085938 25.863281 109.101562 25.832031 109.117188 25.792969 C 109.273438 25.421875 109.320312 25.039062 109.308594 24.648438 C 109.296875 24.246094 109.226562 23.820312 109.148438 23.390625 C 109.011719 22.621094 109.644531 22.136719 110.566406 21.808594 C 111.398438 21.515625 112.472656 21.347656 113.378906 21.21875 C 114.949219 20.988281 115.96875 20.414062 117.207031 19.714844 L 117.542969 19.523438 C 117.898438 19.324219 118.398438 19.1875 118.980469 19.09375 C 119.503906 19.015625 120.089844 18.96875 120.699219 18.945312 L 120.699219 1.308594 C 120.699219 1.296875 120.703125 1.285156 120.703125 1.273438 C 120.75 0.699219 121.105469 0.339844 121.542969 0.179688 C 121.726562 0.113281 121.921875 0.0820312 122.113281 0.0898438 C 122.308594 0.09375 122.5 0.136719 122.671875 0.210938 C 123.082031 0.390625 123.390625 0.757812 123.390625 1.308594 Z M 135.746094 23.992188 L 135.746094 27.21875 C 135.796875 27.210938 135.851562 27.199219 135.910156 27.1875 L 135.964844 27.175781 C 137.03125 26.976562 138.480469 26.699219 138.808594 26.039062 C 138.863281 25.929688 138.902344 25.863281 138.933594 25.800781 C 139.070312 25.550781 139.136719 25.425781 139.125 25.023438 L 139.117188 24.574219 L 139.121094 21.503906 L 138.542969 22.667969 C 138.152344 23.449219 136.847656 23.773438 135.746094 23.992188 Z M 135.441406 27.296875 L 135.441406 24.050781 L 135.351562 24.070312 L 135.296875 24.078125 C 134.738281 24.183594 134.730469 24.257812 134.6875 24.664062 L 134.679688 24.738281 C 134.652344 24.972656 134.480469 25.164062 134.210938 25.324219 L 134.210938 28.714844 C 134.605469 28.582031 134.878906 28.433594 134.898438 28.277344 L 134.90625 28.199219 C 134.964844 27.640625 134.984375 27.441406 135.441406 27.296875 Z M 133.90625 28.808594 L 133.902344 25.480469 C 133.3125 25.734375 132.464844 25.890625 131.671875 26.003906 L 132.503906 26.824219 C 132.699219 27.015625 132.757812 27.210938 132.707031 27.402344 L 132.710938 29.050781 C 133.128906 28.984375 133.546875 28.90625 133.90625 28.808594 Z M 111.765625 29.851562 L 111.765625 33.0625 C 111.902344 33.066406 112.054688 33.0625 112.214844 33.050781 C 114.214844 32.910156 115.835938 32.820312 117.472656 32.847656 C 119.113281 32.878906 120.753906 33.03125 122.792969 33.375 C 122.933594 33.398438 122.980469 33.40625 123.03125 33.417969 C 123.558594 33.507812 124.089844 33.597656 124.617188 33.625 L 124.617188 30.414062 C 124.054688 30.386719 123.5 30.289062 122.949219 30.195312 L 122.710938 30.15625 C 120.695312 29.816406 119.074219 29.664062 117.464844 29.636719 C 115.855469 29.605469 114.242188 29.695312 112.25 29.839844 C 112.074219 29.851562 111.914062 29.855469 111.765625 29.851562 Z M 111.460938 33.042969 L 111.457031 29.835938 C 110.585938 29.753906 110.0625 29.390625 109.34375 28.890625 C 109.246094 28.820312 109.140625 28.75 109.097656 28.71875 C 109.09375 28.714844 109.089844 28.710938 109.082031 28.707031 C 109.09375 29.363281 109.070312 29.984375 109.046875 30.484375 C 109.03125 30.929688 109.015625 31.28125 109.035156 31.464844 C 109.042969 31.574219 109.074219 31.671875 109.128906 31.761719 C 109.179688 31.855469 109.261719 31.941406 109.375 32.019531 C 109.503906 32.105469 109.5625 32.148438 109.625 32.191406 C 110.257812 32.632812 110.722656 32.953125 111.460938 33.042969 Z M 124.921875 30.421875 L 124.921875 33.636719 C 125.148438 33.636719 125.371094 33.625 125.589844 33.589844 C 126.257812 33.496094 126.878906 33.359375 127.441406 33.203125 C 128.117188 33.015625 128.714844 32.800781 129.214844 32.589844 C 129.402344 32.511719 129.578125 32.441406 129.765625 32.363281 C 130.792969 31.953125 132.117188 31.417969 132.21875 31.003906 C 132.21875 30.996094 132.222656 30.984375 132.226562 30.976562 L 132.222656 30.976562 L 132.222656 28.015625 C 131.675781 28.421875 130.730469 28.800781 129.949219 29.117188 C 129.746094 29.199219 129.550781 29.277344 129.40625 29.335938 C 128.882812 29.558594 128.265625 29.78125 127.574219 29.972656 C 126.988281 30.132812 126.34375 30.273438 125.660156 30.375 C 125.414062 30.410156 125.167969 30.421875 124.921875 30.421875 Z M 124.921875 30.421875 " fill-opacity="1" fill-rule="nonzero"/></g><g fill="#ffffff" fill-opacity="1"><g transform="translate(68.459032, 57.222282)"><g><path d="M 6.195312 -14.585938 L 6.140625 -14.640625 C 6.140625 -14.667969 6.089844 -14.773438 5.984375 -14.90625 C 5.851562 -15.039062 5.691406 -15.144531 5.507812 -15.222656 L 5.402344 -15.277344 C 5.1875 -15.410156 5.003906 -15.515625 4.871094 -15.539062 C 4.820312 -15.566406 4.738281 -15.59375 4.632812 -15.59375 L 4.554688 -15.621094 C 4.472656 -15.621094 4.367188 -15.59375 4.261719 -15.539062 C 4.183594 -15.539062 4.050781 -15.460938 3.839844 -15.300781 C 3.8125 -15.277344 3.785156 -15.25 3.757812 -15.222656 C 3.734375 -15.195312 3.679688 -15.144531 3.652344 -15.117188 C 3.628906 -15.0625 3.574219 -15.011719 3.546875 -14.984375 C 3.519531 -14.933594 3.46875 -14.878906 3.414062 -14.800781 C 3.335938 -14.71875 3.257812 -14.535156 3.152344 -14.296875 C 3.125 -14.21875 3.070312 -14.136719 3.042969 -14.058594 C 2.992188 -13.953125 2.9375 -13.792969 2.886719 -13.609375 C 2.832031 -13.503906 2.78125 -13.34375 2.726562 -13.132812 L 2.648438 -12.8125 C 2.566406 -12.46875 2.515625 -12.230469 2.515625 -12.152344 C 2.488281 -12.074219 2.488281 -11.964844 2.460938 -11.835938 C 2.410156 -11.4375 2.382812 -11.09375 2.382812 -10.800781 C 2.382812 -10.5625 2.382812 -10.378906 2.410156 -10.273438 L 2.488281 -9.398438 C 2.542969 -9.1875 2.566406 -9.027344 2.59375 -8.894531 C 2.59375 -8.761719 2.621094 -8.65625 2.648438 -8.578125 C 2.675781 -8.5 2.675781 -8.417969 2.699219 -8.339844 C 2.726562 -8.261719 2.753906 -8.152344 2.78125 -8.023438 L 2.886719 -7.757812 C 2.964844 -7.625 3.019531 -7.546875 3.042969 -7.464844 C 3.070312 -7.386719 3.097656 -7.308594 3.125 -7.253906 C 3.152344 -7.175781 3.203125 -7.09375 3.28125 -6.988281 C 3.363281 -6.882812 3.519531 -6.699219 3.785156 -6.433594 C 3.8125 -6.40625 3.867188 -6.40625 3.917969 -6.378906 C 3.945312 -6.355469 3.996094 -6.328125 4.078125 -6.300781 C 4.128906 -6.273438 4.183594 -6.273438 4.261719 -6.25 C 4.316406 -6.222656 4.367188 -6.222656 4.421875 -6.222656 C 4.449219 -6.195312 4.472656 -6.195312 4.5 -6.195312 L 4.582031 -6.195312 C 4.792969 -6.25 4.949219 -6.300781 5.082031 -6.378906 C 5.425781 -6.566406 5.664062 -6.75 5.824219 -6.9375 L 6.011719 -7.09375 C 6.140625 -7.203125 6.25 -7.332031 6.328125 -7.464844 C 6.566406 -7.863281 6.882812 -8.046875 7.28125 -8.046875 C 7.359375 -8.046875 7.464844 -8.023438 7.546875 -7.96875 C 8.046875 -7.757812 8.285156 -7.4375 8.285156 -6.988281 C 8.285156 -6.75 8.207031 -6.511719 8.074219 -6.273438 L 8.023438 -6.167969 C 7.808594 -5.878906 7.546875 -5.585938 7.226562 -5.320312 L 6.882812 -5.03125 C 6.617188 -4.84375 6.433594 -4.710938 6.328125 -4.660156 C 6.222656 -4.582031 6.117188 -4.527344 6.011719 -4.472656 C 5.507812 -4.183594 4.976562 -4.050781 4.449219 -4.050781 C 4.234375 -4.078125 4.023438 -4.128906 3.785156 -4.15625 C 3.546875 -4.183594 3.308594 -4.261719 3.097656 -4.34375 L 2.859375 -4.5 C 2.199219 -4.949219 1.667969 -5.507812 1.324219 -6.167969 C 1.246094 -6.273438 1.191406 -6.40625 1.136719 -6.539062 C 1.058594 -6.671875 1.007812 -6.804688 0.953125 -6.9375 L 0.875 -7.09375 C 0.714844 -7.546875 0.609375 -7.890625 0.582031 -8.128906 L 0.503906 -8.445312 C 0.449219 -8.710938 0.371094 -9.265625 0.292969 -10.113281 C 0.265625 -10.273438 0.265625 -10.511719 0.265625 -10.800781 L 0.265625 -11.226562 C 0.292969 -11.410156 0.316406 -11.621094 0.316406 -11.808594 C 0.34375 -12.125 0.371094 -12.335938 0.398438 -12.46875 C 0.421875 -12.574219 0.421875 -12.679688 0.449219 -12.8125 C 0.476562 -12.917969 0.503906 -13.027344 0.53125 -13.132812 L 0.875 -14.324219 L 1.164062 -15.0625 C 1.246094 -15.195312 1.324219 -15.328125 1.351562 -15.460938 C 1.457031 -15.671875 1.5625 -15.832031 1.640625 -15.964844 C 1.722656 -16.070312 1.773438 -16.148438 1.828125 -16.230469 C 2.011719 -16.519531 2.25 -16.757812 2.515625 -16.96875 C 2.9375 -17.289062 3.308594 -17.5 3.628906 -17.605469 C 3.945312 -17.710938 4.261719 -17.765625 4.605469 -17.765625 C 4.738281 -17.765625 4.871094 -17.738281 4.976562 -17.710938 C 5.214844 -17.683594 5.425781 -17.632812 5.585938 -17.554688 C 5.773438 -17.5 5.929688 -17.445312 6.0625 -17.367188 L 6.140625 -17.339844 C 6.433594 -17.207031 6.644531 -17.078125 6.777344 -16.945312 C 7.070312 -16.757812 7.28125 -16.601562 7.359375 -16.46875 C 7.464844 -16.414062 7.570312 -16.335938 7.652344 -16.203125 C 7.730469 -16.148438 7.757812 -16.125 7.785156 -16.097656 C 7.785156 -16.070312 7.785156 -16.042969 7.785156 -16.015625 C 7.96875 -15.832031 8.074219 -15.59375 8.074219 -15.328125 L 8.074219 -15.171875 C 8.074219 -14.824219 7.863281 -14.535156 7.4375 -14.296875 C 7.308594 -14.21875 7.175781 -14.191406 7.042969 -14.191406 C 6.726562 -14.191406 6.433594 -14.324219 6.195312 -14.585938 Z M 6.195312 -14.585938 "/></g></g></g><g fill="#ffffff" fill-opacity="1"><g transform="translate(77.008329, 57.222282)"><g><path d="M 3.867188 -6.089844 L 3.546875 -6.089844 C 3.414062 -6.140625 3.308594 -6.167969 3.175781 -6.167969 C 3.097656 -6.222656 3.042969 -6.25 2.992188 -6.25 C 2.9375 -6.300781 2.886719 -6.355469 2.859375 -6.378906 C 2.832031 -6.40625 2.804688 -6.460938 2.78125 -6.488281 C 2.753906 -6.511719 2.726562 -6.539062 2.699219 -6.59375 C 2.675781 -6.617188 2.648438 -6.671875 2.621094 -6.726562 C 2.59375 -6.75 2.566406 -6.804688 2.542969 -6.882812 C 2.515625 -6.964844 2.488281 -7.015625 2.460938 -7.070312 C 2.4375 -7.121094 2.4375 -7.148438 2.4375 -7.175781 C 2.4375 -7.308594 2.410156 -7.4375 2.382812 -7.519531 C 2.382812 -7.730469 2.382812 -7.890625 2.410156 -7.96875 C 2.4375 -8.046875 2.4375 -8.152344 2.460938 -8.234375 C 2.488281 -8.3125 2.488281 -8.367188 2.515625 -8.417969 C 2.515625 -8.472656 2.515625 -8.523438 2.542969 -8.550781 C 2.566406 -8.578125 2.566406 -8.628906 2.59375 -8.65625 C 2.648438 -8.816406 2.726562 -8.949219 2.832031 -9.082031 C 3.257812 -9.503906 3.601562 -9.714844 3.867188 -9.714844 C 4.023438 -9.742188 4.183594 -9.769531 4.34375 -9.769531 C 4.527344 -9.769531 4.660156 -9.769531 4.6875 -9.742188 C 4.820312 -9.742188 4.925781 -9.714844 4.949219 -9.664062 C 5.058594 -9.664062 5.109375 -9.636719 5.136719 -9.609375 C 5.1875 -9.609375 5.242188 -9.609375 5.296875 -9.582031 C 5.320312 -9.558594 5.347656 -9.53125 5.375 -9.503906 C 5.375 -9.476562 5.402344 -9.453125 5.425781 -9.425781 C 5.453125 -9.398438 5.453125 -9.398438 5.480469 -9.371094 C 5.507812 -9.34375 5.507812 -9.34375 5.535156 -9.34375 C 5.535156 -9.320312 5.535156 -9.238281 5.535156 -9.082031 C 5.535156 -8.84375 5.535156 -8.683594 5.535156 -8.605469 C 5.507812 -8.523438 5.507812 -8.472656 5.507812 -8.417969 C 5.507812 -8.285156 5.453125 -8.023438 5.347656 -7.597656 C 5.320312 -7.492188 5.296875 -7.414062 5.269531 -7.332031 C 5.214844 -7.253906 5.164062 -7.148438 5.109375 -7.042969 C 4.925781 -6.75 4.765625 -6.566406 4.632812 -6.488281 C 4.5 -6.378906 4.394531 -6.328125 4.34375 -6.300781 C 4.289062 -6.273438 4.234375 -6.25 4.210938 -6.222656 C 4.15625 -6.195312 4.105469 -6.167969 4.050781 -6.167969 C 3.996094 -6.140625 3.945312 -6.117188 3.867188 -6.089844 Z M 10.085938 -3.757812 C 10.296875 -3.757812 10.484375 -3.785156 10.667969 -3.839844 C 10.855469 -3.890625 11.011719 -3.945312 11.171875 -3.996094 C 11.515625 -4.15625 11.808594 -4.316406 12.046875 -4.472656 L 12.441406 -4.792969 L 13.238281 -5.535156 C 13.371094 -5.640625 13.476562 -5.773438 13.609375 -5.957031 C 13.6875 -6.0625 13.742188 -6.140625 13.792969 -6.195312 C 13.820312 -6.222656 13.925781 -6.355469 14.109375 -6.59375 L 14.21875 -6.726562 C 14.296875 -6.832031 14.375 -6.9375 14.457031 -7.015625 C 14.535156 -7.09375 14.613281 -7.175781 14.71875 -7.308594 C 14.800781 -7.4375 14.933594 -7.570312 15.089844 -7.730469 C 15.328125 -7.96875 15.460938 -8.261719 15.460938 -8.578125 C 15.460938 -8.761719 15.410156 -8.921875 15.300781 -9.082031 C 15.195312 -9.214844 15.039062 -9.34375 14.851562 -9.453125 C 14.746094 -9.558594 14.613281 -9.609375 14.429688 -9.609375 C 14.136719 -9.609375 13.847656 -9.476562 13.554688 -9.214844 C 13.554688 -9.1875 13.527344 -9.132812 13.449219 -9.082031 C 13.289062 -8.921875 13.15625 -8.789062 13.050781 -8.65625 C 12.945312 -8.523438 12.839844 -8.390625 12.734375 -8.285156 L 12.679688 -8.234375 C 12.601562 -8.074219 12.523438 -7.96875 12.441406 -7.890625 C 12.285156 -7.652344 12.203125 -7.546875 12.179688 -7.546875 C 12.152344 -7.519531 12.097656 -7.492188 12.074219 -7.4375 C 12.019531 -7.359375 11.964844 -7.308594 11.914062 -7.226562 C 11.835938 -7.148438 11.78125 -7.09375 11.753906 -7.042969 C 11.703125 -6.988281 11.621094 -6.910156 11.515625 -6.804688 C 11.332031 -6.617188 11.171875 -6.460938 11.039062 -6.378906 C 10.667969 -6.117188 10.378906 -5.957031 10.167969 -5.902344 L 10.140625 -5.902344 C 10.113281 -5.878906 10.007812 -5.878906 9.875 -5.878906 L 9.558594 -5.902344 C 9.453125 -5.957031 9.371094 -5.984375 9.320312 -6.011719 C 9.265625 -6.035156 9.214844 -6.0625 9.132812 -6.089844 C 9.054688 -6.117188 9 -6.167969 8.949219 -6.222656 C 8.867188 -6.273438 8.816406 -6.328125 8.789062 -6.355469 C 8.550781 -6.644531 8.417969 -6.804688 8.390625 -6.855469 C 8.367188 -6.910156 8.3125 -6.964844 8.285156 -7.042969 L 8.046875 -7.546875 L 7.890625 -8.261719 C 7.890625 -8.285156 7.890625 -8.3125 7.890625 -8.339844 C 7.863281 -8.367188 7.863281 -8.390625 7.863281 -8.445312 C 7.835938 -8.5 7.835938 -8.550781 7.835938 -8.578125 C 7.808594 -8.605469 7.808594 -8.628906 7.808594 -8.683594 C 7.808594 -8.738281 7.785156 -8.84375 7.730469 -8.976562 C 7.730469 -9.082031 7.703125 -9.160156 7.652344 -9.238281 C 7.652344 -9.53125 7.597656 -9.769531 7.464844 -9.929688 C 7.464844 -10.21875 7.332031 -10.511719 7.070312 -10.75 C 7.070312 -10.773438 7.042969 -10.828125 7.015625 -10.855469 C 6.988281 -10.882812 6.964844 -10.90625 6.9375 -10.933594 C 6.910156 -10.960938 6.882812 -11.011719 6.804688 -11.09375 C 6.726562 -11.171875 6.617188 -11.25 6.488281 -11.332031 C 6.355469 -11.410156 6.222656 -11.464844 6.035156 -11.515625 C 5.957031 -11.597656 5.796875 -11.648438 5.585938 -11.703125 C 5.480469 -11.753906 5.320312 -11.78125 5.136719 -11.808594 C 5.003906 -11.859375 4.820312 -11.886719 4.605469 -11.886719 L 4.023438 -11.886719 C 3.890625 -11.886719 3.757812 -11.859375 3.574219 -11.808594 L 3.441406 -11.78125 C 3.125 -11.753906 2.726562 -11.597656 2.222656 -11.304688 C 1.984375 -11.171875 1.640625 -10.90625 1.246094 -10.484375 L 0.847656 -9.929688 L 0.582031 -9.320312 L 0.53125 -9.160156 C 0.476562 -9.027344 0.421875 -8.867188 0.398438 -8.710938 C 0.371094 -8.523438 0.316406 -8.3125 0.292969 -8.046875 L 0.265625 -7.414062 L 0.371094 -6.699219 C 0.421875 -6.460938 0.53125 -6.140625 0.6875 -5.796875 L 0.847656 -5.480469 L 1.296875 -4.898438 L 1.613281 -4.660156 C 1.800781 -4.5 2.117188 -4.34375 2.566406 -4.15625 C 2.886719 -4.023438 3.203125 -3.972656 3.546875 -3.972656 L 4.128906 -3.996094 C 4.472656 -4.050781 4.84375 -4.183594 5.269531 -4.367188 L 5.746094 -4.660156 C 5.984375 -4.820312 6.195312 -5.03125 6.433594 -5.296875 L 6.671875 -5.585938 C 6.75 -5.507812 6.855469 -5.402344 6.9375 -5.269531 C 7.015625 -5.136719 7.148438 -5.003906 7.308594 -4.871094 C 7.464844 -4.738281 7.625 -4.605469 7.808594 -4.472656 C 7.96875 -4.34375 8.152344 -4.210938 8.367188 -4.105469 C 8.445312 -4.078125 8.550781 -4.023438 8.65625 -3.996094 C 8.738281 -3.972656 8.84375 -3.917969 8.921875 -3.890625 C 9 -3.867188 9.105469 -3.839844 9.214844 -3.8125 C 9.320312 -3.785156 9.425781 -3.785156 9.503906 -3.757812 Z M 10.085938 -3.757812 "/></g></g></g><g fill="#ffffff" fill-opacity="1"><g transform="translate(90.321938, 57.222282)"><g><path d="M 4.582031 -5.984375 L 4.183594 -6.089844 C 4.15625 -6.117188 4.128906 -6.140625 4.078125 -6.167969 C 4.023438 -6.195312 3.972656 -6.222656 3.890625 -6.273438 C 3.8125 -6.300781 3.734375 -6.355469 3.679688 -6.433594 C 3.601562 -6.511719 3.519531 -6.566406 3.390625 -6.644531 C 3.335938 -6.726562 3.28125 -6.804688 3.230469 -6.882812 C 3.152344 -6.9375 3.125 -6.988281 3.097656 -7.042969 C 2.992188 -7.175781 2.914062 -7.332031 2.832031 -7.492188 C 2.832031 -7.519531 2.804688 -7.597656 2.753906 -7.703125 C 2.753906 -7.730469 2.753906 -7.785156 2.753906 -7.835938 C 2.726562 -7.863281 2.726562 -7.914062 2.726562 -7.941406 C 2.699219 -7.96875 2.675781 -8.046875 2.621094 -8.128906 L 2.488281 -8.789062 C 2.515625 -8.84375 2.542969 -8.894531 2.566406 -8.949219 C 2.566406 -9 2.566406 -9.054688 2.566406 -9.082031 C 2.648438 -9.320312 2.753906 -9.476562 2.832031 -9.582031 C 2.859375 -9.636719 2.886719 -9.664062 2.9375 -9.691406 C 3.042969 -9.796875 3.175781 -9.875 3.335938 -9.902344 C 3.363281 -9.929688 3.441406 -9.953125 3.546875 -9.980469 C 3.628906 -9.980469 3.707031 -9.980469 3.757812 -9.980469 C 3.996094 -9.980469 4.128906 -9.953125 4.210938 -9.902344 C 4.316406 -9.875 4.394531 -9.847656 4.449219 -9.820312 C 4.5 -9.769531 4.554688 -9.714844 4.605469 -9.664062 C 4.738281 -9.582031 4.871094 -9.453125 5.003906 -9.292969 C 5.109375 -9.132812 5.1875 -8.949219 5.269531 -8.738281 C 5.269531 -8.710938 5.296875 -8.65625 5.320312 -8.605469 C 5.347656 -8.523438 5.402344 -8.445312 5.453125 -8.3125 C 5.480469 -8.179688 5.507812 -8.023438 5.535156 -7.863281 C 5.585938 -7.730469 5.613281 -7.597656 5.613281 -7.464844 L 5.640625 -7.09375 C 5.640625 -7.070312 5.640625 -7.015625 5.640625 -6.964844 C 5.613281 -6.910156 5.613281 -6.855469 5.613281 -6.804688 C 5.613281 -6.726562 5.613281 -6.671875 5.585938 -6.617188 C 5.558594 -6.539062 5.507812 -6.460938 5.425781 -6.378906 C 5.269531 -6.195312 5.109375 -6.089844 4.976562 -6.0625 C 4.949219 -6.0625 4.898438 -6.0625 4.871094 -6.035156 C 4.84375 -6.011719 4.820312 -6.011719 4.820312 -6.011719 C 4.792969 -6.011719 4.765625 -6.011719 4.738281 -6.011719 C 4.710938 -5.984375 4.660156 -5.984375 4.582031 -5.984375 Z M 1.324219 3.335938 C 1.507812 3.335938 1.667969 3.28125 1.851562 3.203125 C 2.199219 3.019531 2.382812 2.675781 2.382812 2.199219 L 2.382812 -4.582031 C 2.542969 -4.421875 2.726562 -4.289062 2.964844 -4.210938 C 3.042969 -4.210938 3.125 -4.183594 3.203125 -4.15625 C 3.28125 -4.128906 3.390625 -4.078125 3.496094 -4.023438 L 3.945312 -3.917969 C 4.078125 -3.917969 4.210938 -3.917969 4.316406 -3.890625 L 4.367188 -3.867188 C 4.660156 -3.8125 4.898438 -3.785156 5.109375 -3.757812 C 5.320312 -3.734375 5.664062 -3.707031 6.140625 -3.707031 C 6.355469 -3.734375 6.617188 -3.757812 6.910156 -3.785156 C 7.203125 -3.8125 7.4375 -3.8125 7.652344 -3.839844 L 8.445312 -3.972656 L 9.214844 -4.128906 L 9.929688 -4.34375 C 10.644531 -4.605469 11.226562 -4.871094 11.621094 -5.136719 L 11.835938 -5.269531 C 12.074219 -5.402344 12.3125 -5.558594 12.523438 -5.746094 C 13.027344 -6.140625 13.476562 -6.59375 13.820312 -7.09375 C 13.898438 -7.226562 14.003906 -7.332031 14.085938 -7.464844 C 14.164062 -7.570312 14.269531 -7.730469 14.375 -7.941406 C 14.429688 -7.996094 14.457031 -8.046875 14.480469 -8.101562 C 14.613281 -8.339844 14.695312 -8.523438 14.695312 -8.710938 C 14.695312 -8.816406 14.667969 -8.921875 14.613281 -9 C 14.507812 -9.238281 14.324219 -9.453125 14.085938 -9.582031 C 13.953125 -9.714844 13.765625 -9.769531 13.582031 -9.769531 C 13.183594 -9.769531 12.839844 -9.558594 12.601562 -9.105469 L 12.574219 -9.054688 C 12.496094 -8.949219 12.441406 -8.84375 12.417969 -8.761719 C 12.363281 -8.65625 12.257812 -8.5 12.097656 -8.285156 C 11.914062 -8.046875 11.753906 -7.890625 11.621094 -7.785156 C 11.570312 -7.730469 11.515625 -7.675781 11.4375 -7.597656 C 11.359375 -7.519531 11.277344 -7.464844 11.171875 -7.386719 L 11.121094 -7.332031 C 10.933594 -7.203125 10.722656 -7.070312 10.484375 -6.9375 L 10.246094 -6.804688 C 10.007812 -6.644531 9.691406 -6.488281 9.265625 -6.355469 C 9.082031 -6.328125 8.921875 -6.273438 8.789062 -6.222656 C 8.65625 -6.167969 8.523438 -6.140625 8.417969 -6.117188 C 8.285156 -6.089844 8.179688 -6.0625 8.046875 -6.0625 C 7.914062 -6.035156 7.757812 -6.011719 7.597656 -5.957031 C 7.703125 -6.273438 7.757812 -6.59375 7.757812 -6.9375 C 7.757812 -7.492188 7.703125 -7.941406 7.597656 -8.339844 L 7.546875 -8.550781 C 7.519531 -8.789062 7.4375 -9.027344 7.332031 -9.265625 L 7.28125 -9.425781 C 7.09375 -9.902344 6.910156 -10.246094 6.726562 -10.457031 C 6.617188 -10.644531 6.488281 -10.800781 6.355469 -10.90625 C 6.140625 -11.199219 5.851562 -11.464844 5.453125 -11.648438 C 5.269531 -11.753906 5.082031 -11.835938 4.898438 -11.886719 C 4.527344 -12.019531 4.128906 -12.097656 3.707031 -12.097656 C 3.257812 -12.097656 2.859375 -12.019531 2.515625 -11.859375 C 2.488281 -11.859375 2.460938 -11.859375 2.4375 -11.835938 C 2.410156 -11.808594 2.410156 -11.808594 2.382812 -11.808594 L 2.382812 -12.496094 C 2.382812 -12.867188 2.277344 -13.15625 2.089844 -13.34375 C 1.878906 -13.527344 1.613281 -13.609375 1.324219 -13.609375 C 1.058594 -13.609375 0.820312 -13.527344 0.609375 -13.34375 C 0.371094 -13.15625 0.265625 -12.867188 0.265625 -12.496094 L 0.265625 2.199219 C 0.265625 2.675781 0.449219 3.019531 0.792969 3.203125 C 0.980469 3.28125 1.136719 3.335938 1.324219 3.335938 Z M 1.324219 3.335938 "/></g></g></g><g fill="#ffffff" fill-opacity="1"><g transform="translate(102.815026, 57.222282)"><g><path d="M 4.554688 -3.441406 C 4.949219 -3.441406 5.320312 -3.496094 5.640625 -3.601562 L 5.71875 -3.628906 C 6.011719 -3.707031 6.300781 -3.867188 6.644531 -4.128906 C 6.988281 -4.394531 7.308594 -4.710938 7.625 -5.109375 C 7.652344 -5.136719 7.675781 -5.1875 7.703125 -5.242188 C 7.730469 -5.269531 7.863281 -5.453125 8.101562 -5.746094 C 8.339844 -6.035156 8.5 -6.273438 8.578125 -6.488281 L 8.628906 -6.539062 C 8.683594 -6.617188 8.761719 -6.75 8.867188 -6.910156 C 8.949219 -7.070312 9.027344 -7.226562 9.082031 -7.386719 L 9.320312 -7.835938 C 9.425781 -8.046875 9.53125 -8.234375 9.636719 -8.367188 C 9.929688 -8.761719 10.058594 -9.105469 10.058594 -9.371094 C 10.058594 -9.820312 9.820312 -10.140625 9.34375 -10.324219 C 9.265625 -10.378906 9.160156 -10.40625 9.027344 -10.40625 C 8.628906 -10.40625 8.3125 -10.21875 8.074219 -9.875 L 7.890625 -9.582031 C 7.703125 -9.265625 7.570312 -9.027344 7.492188 -8.894531 C 7.414062 -8.738281 7.332031 -8.605469 7.308594 -8.523438 C 7.253906 -8.445312 7.203125 -8.367188 7.175781 -8.285156 C 7.121094 -8.207031 7.070312 -8.101562 6.988281 -7.96875 C 6.964844 -7.914062 6.9375 -7.863281 6.910156 -7.785156 C 6.882812 -7.703125 6.804688 -7.625 6.726562 -7.492188 C 6.644531 -7.359375 6.539062 -7.226562 6.433594 -7.070312 L 5.984375 -6.460938 C 5.851562 -6.273438 5.71875 -6.140625 5.613281 -6.0625 L 5.558594 -6.011719 C 5.480469 -5.929688 5.402344 -5.851562 5.269531 -5.773438 C 5.242188 -5.746094 5.1875 -5.691406 5.109375 -5.664062 C 5.03125 -5.640625 4.925781 -5.585938 4.820312 -5.558594 L 4.472656 -5.585938 C 4.394531 -5.640625 4.289062 -5.664062 4.210938 -5.691406 C 4.128906 -5.71875 4.050781 -5.746094 3.996094 -5.773438 C 3.945312 -5.796875 3.890625 -5.851562 3.8125 -5.902344 C 3.734375 -5.929688 3.652344 -5.984375 3.628906 -6.011719 C 3.46875 -6.140625 3.363281 -6.273438 3.308594 -6.378906 C 3.230469 -6.460938 3.175781 -6.539062 3.152344 -6.59375 C 3.125 -6.644531 3.097656 -6.671875 3.070312 -6.699219 L 2.804688 -7.386719 C 2.726562 -7.546875 2.675781 -7.730469 2.621094 -7.941406 L 2.59375 -8.046875 C 2.566406 -8.234375 2.566406 -8.367188 2.542969 -8.472656 C 2.515625 -8.578125 2.515625 -8.65625 2.515625 -8.738281 C 2.488281 -8.789062 2.488281 -8.84375 2.488281 -8.921875 C 2.488281 -9 2.488281 -9.054688 2.488281 -9.132812 C 2.460938 -9.1875 2.460938 -9.796875 2.460938 -10.960938 C 2.460938 -11.332031 2.355469 -11.621094 2.171875 -11.808594 C 1.960938 -11.992188 1.695312 -12.097656 1.402344 -12.097656 C 1.136719 -12.097656 0.898438 -11.992188 0.6875 -11.808594 C 0.449219 -11.621094 0.34375 -11.332031 0.34375 -10.960938 C 0.34375 -9.769531 0.34375 -9.132812 0.371094 -9.054688 C 0.371094 -8.976562 0.371094 -8.867188 0.371094 -8.738281 C 0.371094 -8.605469 0.398438 -8.417969 0.421875 -8.207031 L 0.6875 -6.988281 C 0.769531 -6.804688 0.847656 -6.59375 0.898438 -6.378906 C 1.007812 -6.195312 1.085938 -6.011719 1.164062 -5.796875 L 1.402344 -5.402344 C 1.429688 -5.296875 1.507812 -5.1875 1.613281 -5.082031 C 1.695312 -4.949219 1.828125 -4.820312 1.960938 -4.632812 L 2.144531 -4.472656 C 2.382812 -4.261719 2.675781 -4.050781 3.019531 -3.867188 C 3.097656 -3.839844 3.203125 -3.785156 3.335938 -3.734375 C 3.441406 -3.679688 3.601562 -3.628906 3.839844 -3.574219 L 4.023438 -3.519531 Z M 1.484375 -12.894531 C 1.695312 -12.917969 1.878906 -13.027344 2.039062 -13.183594 C 2.277344 -13.421875 2.382812 -13.6875 2.382812 -13.925781 L 2.4375 -14.375 C 2.4375 -14.640625 2.355469 -14.878906 2.171875 -15.0625 C 1.960938 -15.300781 1.695312 -15.433594 1.375 -15.433594 C 0.820312 -15.433594 0.476562 -15.144531 0.316406 -14.5625 L 0.265625 -13.898438 C 0.265625 -13.449219 0.449219 -13.132812 0.847656 -13 C 1.058594 -12.917969 1.269531 -12.894531 1.484375 -12.894531 Z M 1.484375 -12.894531 "/></g></g></g><g fill="#ffffff" fill-opacity="1"><g transform="translate(110.755541, 57.222282)"><g><path d="M 6.964844 -3.390625 C 7.203125 -3.390625 7.597656 -3.441406 8.128906 -3.519531 L 8.65625 -3.679688 L 8.84375 -3.757812 C 9.292969 -3.890625 9.742188 -4.128906 10.191406 -4.421875 C 10.273438 -4.472656 10.351562 -4.527344 10.429688 -4.582031 C 10.511719 -4.605469 10.5625 -4.660156 10.644531 -4.738281 C 10.722656 -4.792969 10.800781 -4.871094 10.90625 -4.949219 L 11.011719 -5.03125 C 11.121094 -5.136719 11.25 -5.242188 11.410156 -5.347656 C 11.4375 -5.375 11.488281 -5.425781 11.542969 -5.507812 C 11.597656 -5.558594 11.726562 -5.691406 11.964844 -5.902344 C 12.363281 -6.300781 12.734375 -6.75 13.078125 -7.253906 L 13.265625 -7.464844 C 13.289062 -7.519531 13.34375 -7.570312 13.371094 -7.597656 C 13.394531 -7.625 13.421875 -7.675781 13.476562 -7.757812 C 13.527344 -7.835938 13.609375 -7.96875 13.742188 -8.128906 L 13.980469 -8.445312 C 14.003906 -8.523438 14.191406 -8.789062 14.480469 -9.1875 C 14.507812 -9.214844 14.507812 -9.238281 14.535156 -9.265625 C 14.535156 -9.292969 14.5625 -9.320312 14.613281 -9.371094 C 14.746094 -9.582031 14.824219 -9.796875 14.824219 -10.007812 L 14.824219 -10.085938 C 14.824219 -10.351562 14.746094 -10.5625 14.613281 -10.722656 C 14.457031 -10.882812 14.269531 -10.988281 14.058594 -11.039062 C 13.953125 -11.09375 13.847656 -11.121094 13.742188 -11.121094 C 13.394531 -11.121094 13.105469 -10.933594 12.839844 -10.5625 C 12.839844 -10.535156 12.839844 -10.511719 12.8125 -10.484375 C 12.789062 -10.457031 12.734375 -10.40625 12.707031 -10.378906 L 11.964844 -9.265625 C 11.726562 -8.976562 11.542969 -8.738281 11.4375 -8.578125 L 11.121094 -8.152344 C 11.011719 -8.046875 10.90625 -7.941406 10.828125 -7.835938 C 10.75 -7.730469 10.667969 -7.625 10.589844 -7.519531 C 10.191406 -7.121094 9.980469 -6.910156 9.929688 -6.882812 L 9.453125 -6.488281 C 9.425781 -6.460938 9.371094 -6.40625 9.320312 -6.378906 C 9.238281 -6.355469 9.160156 -6.273438 9.054688 -6.195312 C 8.921875 -6.117188 8.761719 -6.011719 8.550781 -5.902344 L 8.339844 -5.824219 C 8.234375 -5.796875 8.128906 -5.746094 8.023438 -5.71875 C 7.914062 -5.664062 7.808594 -5.640625 7.703125 -5.640625 C 7.597656 -5.613281 7.386719 -5.585938 7.09375 -5.535156 C 7.015625 -5.507812 6.910156 -5.507812 6.75 -5.507812 C 6.566406 -5.507812 6.460938 -5.507812 6.433594 -5.535156 C 6.378906 -5.535156 6.328125 -5.535156 6.300781 -5.535156 C 6.222656 -5.585938 6.140625 -5.613281 6.089844 -5.640625 C 6.035156 -5.664062 5.984375 -5.664062 5.957031 -5.691406 C 5.902344 -5.71875 5.824219 -5.773438 5.71875 -5.878906 C 5.691406 -5.929688 5.640625 -5.984375 5.613281 -6.035156 C 5.585938 -6.0625 5.535156 -6.117188 5.507812 -6.167969 C 5.480469 -6.195312 5.453125 -6.25 5.425781 -6.328125 C 5.402344 -6.378906 5.347656 -6.433594 5.320312 -6.511719 C 5.296875 -6.59375 5.269531 -6.671875 5.242188 -6.75 C 5.214844 -6.832031 5.1875 -6.910156 5.164062 -7.042969 C 5.136719 -7.148438 5.082031 -7.226562 5.058594 -7.308594 L 4.976562 -7.703125 C 4.925781 -7.996094 4.898438 -8.234375 4.898438 -8.367188 C 4.898438 -8.5 4.898438 -8.628906 4.898438 -8.710938 C 4.871094 -8.789062 4.871094 -9.902344 4.871094 -11.992188 C 5.082031 -11.992188 5.425781 -11.964844 5.902344 -11.886719 C 6.167969 -11.859375 6.378906 -11.835938 6.539062 -11.808594 L 6.726562 -11.808594 C 7.121094 -11.808594 7.414062 -11.941406 7.597656 -12.203125 C 7.730469 -12.417969 7.808594 -12.628906 7.808594 -12.839844 C 7.808594 -12.972656 7.785156 -13.132812 7.730469 -13.265625 C 7.546875 -13.742188 7.015625 -13.980469 6.195312 -13.980469 C 5.480469 -14.085938 5.03125 -14.136719 4.84375 -14.136719 C 4.84375 -15.089844 4.84375 -15.621094 4.84375 -15.699219 C 4.820312 -15.777344 4.820312 -15.910156 4.820312 -16.125 C 4.820312 -16.46875 4.820312 -16.679688 4.792969 -16.757812 C 4.792969 -17.101562 4.792969 -17.289062 4.792969 -17.339844 C 4.765625 -17.367188 4.765625 -17.421875 4.765625 -17.472656 C 4.765625 -17.527344 4.765625 -17.578125 4.765625 -17.632812 C 4.738281 -17.660156 4.738281 -17.683594 4.738281 -17.710938 C 4.710938 -17.871094 4.6875 -17.976562 4.632812 -18.054688 C 4.449219 -18.53125 4.128906 -18.769531 3.652344 -18.769531 L 3.574219 -18.769531 C 3.28125 -18.769531 3.042969 -18.636719 2.804688 -18.375 C 2.648438 -18.1875 2.566406 -18.003906 2.566406 -17.765625 C 2.566406 -17.632812 2.59375 -17.5 2.648438 -17.367188 L 2.648438 -17.261719 C 2.675781 -17.234375 2.675781 -17.023438 2.675781 -16.679688 C 2.699219 -16.574219 2.699219 -16.363281 2.699219 -16.070312 C 2.699219 -15.859375 2.699219 -15.726562 2.726562 -15.648438 C 2.726562 -15.566406 2.726562 -15.089844 2.726562 -14.269531 C 2.59375 -14.296875 2.410156 -14.296875 2.222656 -14.296875 C 2.011719 -14.296875 1.878906 -14.296875 1.828125 -14.324219 C 1.773438 -14.324219 1.695312 -14.324219 1.613281 -14.347656 C 1.507812 -14.347656 1.429688 -14.347656 1.351562 -14.347656 C 1.113281 -14.347656 0.898438 -14.269531 0.714844 -14.136719 C 0.421875 -13.953125 0.265625 -13.660156 0.265625 -13.289062 C 0.265625 -12.761719 0.554688 -12.417969 1.164062 -12.230469 C 1.191406 -12.230469 1.246094 -12.230469 1.324219 -12.230469 C 1.375 -12.203125 1.429688 -12.203125 1.507812 -12.203125 C 1.589844 -12.203125 1.640625 -12.203125 1.722656 -12.203125 C 1.773438 -12.179688 1.933594 -12.179688 2.171875 -12.179688 C 2.410156 -12.179688 2.621094 -12.179688 2.753906 -12.152344 C 2.753906 -9.929688 2.753906 -8.761719 2.78125 -8.65625 C 2.78125 -8.523438 2.78125 -8.390625 2.78125 -8.234375 C 2.78125 -8.046875 2.804688 -7.808594 2.859375 -7.519531 L 2.964844 -7.09375 L 2.992188 -6.882812 C 3.042969 -6.726562 3.097656 -6.511719 3.152344 -6.25 L 3.390625 -5.613281 C 3.496094 -5.453125 3.601562 -5.269531 3.707031 -5.03125 C 3.945312 -4.660156 4.261719 -4.34375 4.605469 -4.050781 C 4.898438 -3.8125 5.269531 -3.628906 5.773438 -3.496094 C 6.035156 -3.414062 6.433594 -3.390625 6.964844 -3.390625 Z M 6.964844 -3.390625 "/></g></g></g><g fill="#ffffff" fill-opacity="1"><g transform="translate(123.433907, 57.222282)"><g><path d="M 3.867188 -6.089844 L 3.546875 -6.089844 C 3.414062 -6.140625 3.308594 -6.167969 3.175781 -6.167969 C 3.097656 -6.222656 3.042969 -6.25 2.992188 -6.25 C 2.9375 -6.300781 2.886719 -6.355469 2.859375 -6.378906 C 2.832031 -6.40625 2.804688 -6.460938 2.78125 -6.488281 C 2.753906 -6.511719 2.726562 -6.539062 2.699219 -6.59375 C 2.675781 -6.617188 2.648438 -6.671875 2.621094 -6.726562 C 2.59375 -6.75 2.566406 -6.804688 2.542969 -6.882812 C 2.515625 -6.964844 2.488281 -7.015625 2.460938 -7.070312 C 2.4375 -7.121094 2.4375 -7.148438 2.4375 -7.175781 C 2.4375 -7.308594 2.410156 -7.4375 2.382812 -7.519531 C 2.382812 -7.730469 2.382812 -7.890625 2.410156 -7.96875 C 2.4375 -8.046875 2.4375 -8.152344 2.460938 -8.234375 C 2.488281 -8.3125 2.488281 -8.367188 2.515625 -8.417969 C 2.515625 -8.472656 2.515625 -8.523438 2.542969 -8.550781 C 2.566406 -8.578125 2.566406 -8.628906 2.59375 -8.65625 C 2.648438 -8.816406 2.726562 -8.949219 2.832031 -9.082031 C 3.257812 -9.503906 3.601562 -9.714844 3.867188 -9.714844 C 4.023438 -9.742188 4.183594 -9.769531 4.34375 -9.769531 C 4.527344 -9.769531 4.660156 -9.769531 4.6875 -9.742188 C 4.820312 -9.742188 4.925781 -9.714844 4.949219 -9.664062 C 5.058594 -9.664062 5.109375 -9.636719 5.136719 -9.609375 C 5.1875 -9.609375 5.242188 -9.609375 5.296875 -9.582031 C 5.320312 -9.558594 5.347656 -9.53125 5.375 -9.503906 C 5.375 -9.476562 5.402344 -9.453125 5.425781 -9.425781 C 5.453125 -9.398438 5.453125 -9.398438 5.480469 -9.371094 C 5.507812 -9.34375 5.507812 -9.34375 5.535156 -9.34375 C 5.535156 -9.320312 5.535156 -9.238281 5.535156 -9.082031 C 5.535156 -8.84375 5.535156 -8.683594 5.535156 -8.605469 C 5.507812 -8.523438 5.507812 -8.472656 5.507812 -8.417969 C 5.507812 -8.285156 5.453125 -8.023438 5.347656 -7.597656 C 5.320312 -7.492188 5.296875 -7.414062 5.269531 -7.332031 C 5.214844 -7.253906 5.164062 -7.148438 5.109375 -7.042969 C 4.925781 -6.75 4.765625 -6.566406 4.632812 -6.488281 C 4.5 -6.378906 4.394531 -6.328125 4.34375 -6.300781 C 4.289062 -6.273438 4.234375 -6.25 4.210938 -6.222656 C 4.15625 -6.195312 4.105469 -6.167969 4.050781 -6.167969 C 3.996094 -6.140625 3.945312 -6.117188 3.867188 -6.089844 Z M 10.085938 -3.757812 C 10.296875 -3.757812 10.484375 -3.785156 10.667969 -3.839844 C 10.855469 -3.890625 11.011719 -3.945312 11.171875 -3.996094 C 11.515625 -4.15625 11.808594 -4.316406 12.046875 -4.472656 L 12.441406 -4.792969 L 13.238281 -5.535156 C 13.371094 -5.640625 13.476562 -5.773438 13.609375 -5.957031 C 13.6875 -6.0625 13.742188 -6.140625 13.792969 -6.195312 C 13.820312 -6.222656 13.925781 -6.355469 14.109375 -6.59375 L 14.21875 -6.726562 C 14.296875 -6.832031 14.375 -6.9375 14.457031 -7.015625 C 14.535156 -7.09375 14.613281 -7.175781 14.71875 -7.308594 C 14.800781 -7.4375 14.933594 -7.570312 15.089844 -7.730469 C 15.328125 -7.96875 15.460938 -8.261719 15.460938 -8.578125 C 15.460938 -8.761719 15.410156 -8.921875 15.300781 -9.082031 C 15.195312 -9.214844 15.039062 -9.34375 14.851562 -9.453125 C 14.746094 -9.558594 14.613281 -9.609375 14.429688 -9.609375 C 14.136719 -9.609375 13.847656 -9.476562 13.554688 -9.214844 C 13.554688 -9.1875 13.527344 -9.132812 13.449219 -9.082031 C 13.289062 -8.921875 13.15625 -8.789062 13.050781 -8.65625 C 12.945312 -8.523438 12.839844 -8.390625 12.734375 -8.285156 L 12.679688 -8.234375 C 12.601562 -8.074219 12.523438 -7.96875 12.441406 -7.890625 C 12.285156 -7.652344 12.203125 -7.546875 12.179688 -7.546875 C 12.152344 -7.519531 12.097656 -7.492188 12.074219 -7.4375 C 12.019531 -7.359375 11.964844 -7.308594 11.914062 -7.226562 C 11.835938 -7.148438 11.78125 -7.09375 11.753906 -7.042969 C 11.703125 -6.988281 11.621094 -6.910156 11.515625 -6.804688 C 11.332031 -6.617188 11.171875 -6.460938 11.039062 -6.378906 C 10.667969 -6.117188 10.378906 -5.957031 10.167969 -5.902344 L 10.140625 -5.902344 C 10.113281 -5.878906 10.007812 -5.878906 9.875 -5.878906 L 9.558594 -5.902344 C 9.453125 -5.957031 9.371094 -5.984375 9.320312 -6.011719 C 9.265625 -6.035156 9.214844 -6.0625 9.132812 -6.089844 C 9.054688 -6.117188 9 -6.167969 8.949219 -6.222656 C 8.867188 -6.273438 8.816406 -6.328125 8.789062 -6.355469 C 8.550781 -6.644531 8.417969 -6.804688 8.390625 -6.855469 C 8.367188 -6.910156 8.3125 -6.964844 8.285156 -7.042969 L 8.046875 -7.546875 L 7.890625 -8.261719 C 7.890625 -8.285156 7.890625 -8.3125 7.890625 -8.339844 C 7.863281 -8.367188 7.863281 -8.390625 7.863281 -8.445312 C 7.835938 -8.5 7.835938 -8.550781 7.835938 -8.578125 C 7.808594 -8.605469 7.808594 -8.628906 7.808594 -8.683594 C 7.808594 -8.738281 7.785156 -8.84375 7.730469 -8.976562 C 7.730469 -9.082031 7.703125 -9.160156 7.652344 -9.238281 C 7.652344 -9.53125 7.597656 -9.769531 7.464844 -9.929688 C 7.464844 -10.21875 7.332031 -10.511719 7.070312 -10.75 C 7.070312 -10.773438 7.042969 -10.828125 7.015625 -10.855469 C 6.988281 -10.882812 6.964844 -10.90625 6.9375 -10.933594 C 6.910156 -10.960938 6.882812 -11.011719 6.804688 -11.09375 C 6.726562 -11.171875 6.617188 -11.25 6.488281 -11.332031 C 6.355469 -11.410156 6.222656 -11.464844 6.035156 -11.515625 C 5.957031 -11.597656 5.796875 -11.648438 5.585938 -11.703125 C 5.480469 -11.753906 5.320312 -11.78125 5.136719 -11.808594 C 5.003906 -11.859375 4.820312 -11.886719 4.605469 -11.886719 L 4.023438 -11.886719 C 3.890625 -11.886719 3.757812 -11.859375 3.574219 -11.808594 L 3.441406 -11.78125 C 3.125 -11.753906 2.726562 -11.597656 2.222656 -11.304688 C 1.984375 -11.171875 1.640625 -10.90625 1.246094 -10.484375 L 0.847656 -9.929688 L 0.582031 -9.320312 L 0.53125 -9.160156 C 0.476562 -9.027344 0.421875 -8.867188 0.398438 -8.710938 C 0.371094 -8.523438 0.316406 -8.3125 0.292969 -8.046875 L 0.265625 -7.414062 L 0.371094 -6.699219 C 0.421875 -6.460938 0.53125 -6.140625 0.6875 -5.796875 L 0.847656 -5.480469 L 1.296875 -4.898438 L 1.613281 -4.660156 C 1.800781 -4.5 2.117188 -4.34375 2.566406 -4.15625 C 2.886719 -4.023438 3.203125 -3.972656 3.546875 -3.972656 L 4.128906 -3.996094 C 4.472656 -4.050781 4.84375 -4.183594 5.269531 -4.367188 L 5.746094 -4.660156 C 5.984375 -4.820312 6.195312 -5.03125 6.433594 -5.296875 L 6.671875 -5.585938 C 6.75 -5.507812 6.855469 -5.402344 6.9375 -5.269531 C 7.015625 -5.136719 7.148438 -5.003906 7.308594 -4.871094 C 7.464844 -4.738281 7.625 -4.605469 7.808594 -4.472656 C 7.96875 -4.34375 8.152344 -4.210938 8.367188 -4.105469 C 8.445312 -4.078125 8.550781 -4.023438 8.65625 -3.996094 C 8.738281 -3.972656 8.84375 -3.917969 8.921875 -3.890625 C 9 -3.867188 9.105469 -3.839844 9.214844 -3.8125 C 9.320312 -3.785156 9.425781 -3.785156 9.503906 -3.757812 Z M 10.085938 -3.757812 "/></g></g></g><g fill="#ffffff" fill-opacity="1"><g transform="translate(136.747516, 57.222282)"><g><path d="M 4.261719 -5.878906 C 4.183594 -5.878906 4.128906 -5.878906 4.050781 -5.902344 C 3.972656 -5.929688 3.917969 -5.957031 3.890625 -5.984375 C 3.839844 -6.011719 3.707031 -6.089844 3.496094 -6.25 C 3.441406 -6.300781 3.390625 -6.355469 3.363281 -6.433594 C 3.308594 -6.488281 3.257812 -6.539062 3.230469 -6.59375 C 3.203125 -6.644531 3.175781 -6.699219 3.152344 -6.777344 C 3.125 -6.832031 3.070312 -6.882812 3.042969 -6.964844 L 2.726562 -7.941406 C 2.699219 -8.023438 2.699219 -8.101562 2.675781 -8.207031 C 2.648438 -8.285156 2.621094 -8.390625 2.59375 -8.472656 C 2.59375 -8.628906 2.566406 -8.816406 2.488281 -9.054688 C 2.488281 -9.265625 2.460938 -9.582031 2.410156 -9.980469 L 2.382812 -10.40625 L 2.410156 -11.199219 C 2.4375 -11.332031 2.460938 -11.488281 2.460938 -11.621094 C 2.515625 -11.859375 2.542969 -12.019531 2.566406 -12.152344 C 2.59375 -12.285156 2.59375 -12.390625 2.621094 -12.46875 C 2.621094 -12.550781 2.621094 -12.601562 2.648438 -12.628906 L 2.804688 -13.265625 C 2.859375 -13.476562 2.914062 -13.609375 2.9375 -13.6875 C 2.964844 -13.765625 2.992188 -13.820312 3.019531 -13.847656 C 3.070312 -13.980469 3.203125 -14.164062 3.390625 -14.429688 L 3.441406 -14.507812 C 3.519531 -14.640625 3.652344 -14.746094 3.785156 -14.824219 C 3.839844 -14.90625 3.890625 -14.933594 3.917969 -14.933594 C 3.945312 -14.933594 3.972656 -14.933594 3.996094 -14.957031 C 4.183594 -14.773438 4.316406 -14.613281 4.394531 -14.457031 C 4.472656 -14.296875 4.554688 -14.164062 4.582031 -14.03125 C 4.738281 -13.792969 4.871094 -13.476562 5.003906 -13.132812 C 5.136719 -12.789062 5.214844 -12.441406 5.269531 -12.125 C 5.320312 -11.964844 5.375 -11.78125 5.402344 -11.570312 C 5.453125 -11.4375 5.480469 -11.25 5.480469 -11.039062 C 5.558594 -10.695312 5.585938 -10.21875 5.585938 -9.664062 C 5.585938 -9.371094 5.585938 -9.1875 5.585938 -9.132812 C 5.558594 -9.082031 5.558594 -9.027344 5.558594 -8.976562 C 5.558594 -8.921875 5.558594 -8.867188 5.535156 -8.789062 C 5.535156 -8.84375 5.507812 -8.867188 5.480469 -8.867188 L 5.425781 -8.949219 C 5.242188 -9.34375 4.898438 -9.558594 4.449219 -9.558594 C 4.050781 -9.558594 3.734375 -9.292969 3.496094 -8.789062 C 3.46875 -8.710938 3.441406 -8.605469 3.441406 -8.472656 C 3.441406 -8.3125 3.496094 -8.128906 3.574219 -7.914062 C 3.628906 -7.863281 3.679688 -7.785156 3.734375 -7.675781 L 4.128906 -7.148438 L 4.316406 -6.882812 C 4.34375 -6.882812 4.449219 -6.777344 4.582031 -6.566406 C 4.660156 -6.460938 4.738281 -6.355469 4.792969 -6.25 L 4.6875 -6.117188 L 4.582031 -6.035156 C 4.472656 -5.957031 4.421875 -5.902344 4.394531 -5.902344 C 4.367188 -5.902344 4.367188 -5.902344 4.367188 -5.902344 C 4.34375 -5.878906 4.316406 -5.878906 4.261719 -5.878906 Z M 7.308594 -3.679688 C 7.546875 -3.679688 7.785156 -3.8125 8.074219 -4.078125 C 8.234375 -4.234375 8.3125 -4.421875 8.3125 -4.660156 C 8.3125 -4.976562 8.179688 -5.296875 7.941406 -5.640625 L 7.890625 -5.71875 C 7.730469 -5.957031 7.597656 -6.117188 7.519531 -6.195312 C 7.519531 -6.25 7.492188 -6.300781 7.464844 -6.328125 C 7.414062 -6.355469 7.386719 -6.40625 7.359375 -6.433594 C 7.332031 -6.460938 7.308594 -6.488281 7.28125 -6.511719 L 7.308594 -6.566406 C 7.359375 -6.75 7.414062 -6.964844 7.492188 -7.148438 C 7.546875 -7.332031 7.570312 -7.546875 7.570312 -7.757812 C 7.625 -7.941406 7.652344 -8.128906 7.652344 -8.339844 C 7.652344 -8.390625 7.652344 -8.472656 7.675781 -8.550781 C 7.675781 -8.628906 7.675781 -8.816406 7.703125 -9.054688 C 7.703125 -9.292969 7.703125 -9.53125 7.703125 -9.769531 C 7.703125 -10.167969 7.703125 -10.484375 7.675781 -10.695312 C 7.652344 -10.90625 7.625 -11.121094 7.570312 -11.359375 C 7.570312 -11.621094 7.492188 -12.046875 7.332031 -12.628906 C 7.28125 -12.839844 7.226562 -13.050781 7.148438 -13.238281 C 7.121094 -13.394531 7.070312 -13.582031 6.964844 -13.820312 C 6.855469 -14.269531 6.59375 -14.851562 6.167969 -15.566406 L 6.195312 -15.832031 C 6.195312 -16.148438 6.035156 -16.46875 5.691406 -16.757812 L 5.640625 -16.785156 C 5.535156 -16.890625 5.402344 -16.96875 5.242188 -17.023438 C 5.058594 -17.128906 4.792969 -17.183594 4.421875 -17.183594 C 4.183594 -17.183594 3.917969 -17.128906 3.628906 -17.050781 C 3.46875 -17.023438 3.28125 -16.96875 3.070312 -16.863281 C 2.9375 -16.8125 2.753906 -16.707031 2.542969 -16.546875 C 2.25 -16.363281 1.984375 -16.097656 1.722656 -15.726562 C 1.507812 -15.460938 1.296875 -15.144531 1.113281 -14.773438 L 1.085938 -14.695312 C 1.03125 -14.5625 0.953125 -14.402344 0.875 -14.164062 C 0.769531 -13.925781 0.6875 -13.632812 0.636719 -13.316406 L 0.503906 -12.789062 C 0.476562 -12.707031 0.476562 -12.601562 0.476562 -12.46875 C 0.449219 -12.335938 0.421875 -12.152344 0.371094 -11.914062 L 0.292969 -11.304688 L 0.265625 -10.667969 L 0.292969 -10.035156 C 0.292969 -9.796875 0.316406 -9.371094 0.398438 -8.710938 C 0.476562 -8.390625 0.554688 -8.046875 0.609375 -7.675781 L 0.660156 -7.4375 C 0.742188 -7.28125 0.792969 -7.070312 0.847656 -6.777344 C 0.925781 -6.617188 1.007812 -6.40625 1.085938 -6.140625 L 1.375 -5.558594 C 1.613281 -5.136719 1.90625 -4.792969 2.25 -4.5 L 2.382812 -4.421875 C 2.832031 -4.078125 3.257812 -3.890625 3.652344 -3.8125 L 3.890625 -3.757812 L 4.554688 -3.757812 C 4.976562 -3.8125 5.375 -3.972656 5.746094 -4.261719 C 5.796875 -4.289062 5.851562 -4.34375 5.929688 -4.394531 C 5.984375 -4.421875 6.035156 -4.472656 6.117188 -4.554688 C 6.117188 -4.527344 6.117188 -4.527344 6.140625 -4.527344 C 6.167969 -4.5 6.195312 -4.472656 6.222656 -4.449219 C 6.25 -4.421875 6.273438 -4.34375 6.328125 -4.234375 C 6.617188 -3.867188 6.9375 -3.679688 7.308594 -3.679688 Z M 7.308594 -3.679688 "/></g></g></g><g fill="#ffffff" fill-opacity="1"><g transform="translate(145.323274, 57.222282)"><g><path d="M 6.539062 -11.121094 L 6.511719 -11.121094 L 6.511719 -11.144531 Z M 5.269531 -3.652344 C 5.402344 -3.652344 5.613281 -3.679688 5.929688 -3.757812 L 6.0625 -3.785156 C 6.273438 -3.867188 6.488281 -3.945312 6.699219 -4.078125 L 6.910156 -4.183594 C 7.570312 -4.582031 8.046875 -5.082031 8.339844 -5.664062 L 8.417969 -5.824219 C 8.550781 -6.035156 8.65625 -6.378906 8.789062 -6.882812 L 8.921875 -7.4375 C 8.976562 -7.625 9 -7.808594 9.027344 -8.023438 C 9.054688 -8.234375 9.054688 -8.417969 9.054688 -8.605469 L 9.054688 -9.582031 C 9.105469 -9.582031 9.160156 -9.582031 9.214844 -9.609375 C 9.265625 -9.609375 9.320312 -9.609375 9.398438 -9.609375 C 9.453125 -9.609375 9.53125 -9.609375 9.636719 -9.636719 C 9.742188 -9.636719 9.820312 -9.636719 9.902344 -9.636719 C 9.980469 -9.636719 10.058594 -9.636719 10.167969 -9.664062 C 10.722656 -9.714844 11.039062 -9.742188 11.171875 -9.742188 C 11.4375 -9.796875 11.886719 -9.820312 12.523438 -9.820312 C 12.761719 -9.847656 12.972656 -9.875 13.210938 -9.875 C 13.554688 -9.929688 13.980469 -9.953125 14.457031 -9.980469 C 14.90625 -10.007812 15.222656 -10.191406 15.382812 -10.535156 C 15.460938 -10.722656 15.515625 -10.882812 15.515625 -11.039062 C 15.515625 -11.226562 15.460938 -11.410156 15.328125 -11.597656 C 15.144531 -11.914062 14.878906 -12.074219 14.480469 -12.074219 L 13.714844 -12.046875 C 13.503906 -12.046875 13.289062 -12.019531 13.050781 -11.992188 C 12.894531 -11.992188 12.550781 -11.964844 12.019531 -11.914062 L 11.703125 -11.914062 C 11.4375 -11.914062 11.199219 -11.886719 10.988281 -11.859375 C 10.695312 -11.859375 10.484375 -11.835938 10.296875 -11.808594 C 10.007812 -11.78125 9.820312 -11.753906 9.769531 -11.726562 L 8.628906 -11.703125 C 8.628906 -11.753906 8.605469 -11.808594 8.578125 -11.835938 C 8.367188 -12.285156 8.074219 -12.628906 7.730469 -12.867188 C 7.4375 -13.050781 7.148438 -13.15625 6.832031 -13.15625 C 6.222656 -13.15625 5.746094 -12.8125 5.402344 -12.125 C 5.320312 -11.964844 5.296875 -11.753906 5.296875 -11.488281 C 5.296875 -11.277344 5.347656 -11.066406 5.453125 -10.828125 C 5.664062 -10.511719 5.902344 -10.273438 6.195312 -10.113281 L 6.804688 -9.847656 C 6.832031 -9.847656 6.855469 -9.847656 6.882812 -9.847656 C 6.882812 -9.820312 6.882812 -9.820312 6.910156 -9.796875 C 6.910156 -9.769531 6.910156 -9.769531 6.9375 -9.769531 C 6.9375 -9.742188 6.9375 -9.582031 6.9375 -9.238281 C 6.9375 -8.472656 6.910156 -7.996094 6.832031 -7.863281 C 6.804688 -7.703125 6.804688 -7.570312 6.777344 -7.492188 C 6.75 -7.414062 6.726562 -7.332031 6.699219 -7.28125 C 6.617188 -7.042969 6.566406 -6.882812 6.511719 -6.75 C 6.488281 -6.726562 6.488281 -6.671875 6.460938 -6.644531 C 6.433594 -6.59375 6.433594 -6.539062 6.40625 -6.511719 C 6.378906 -6.488281 6.355469 -6.433594 6.328125 -6.40625 C 6.300781 -6.355469 6.25 -6.300781 6.195312 -6.273438 C 6.140625 -6.222656 6.089844 -6.195312 6.0625 -6.167969 C 6.035156 -6.140625 5.984375 -6.117188 5.957031 -6.089844 C 5.824219 -6.011719 5.746094 -5.957031 5.71875 -5.929688 C 5.664062 -5.902344 5.558594 -5.851562 5.375 -5.796875 C 5.347656 -5.796875 5.320312 -5.796875 5.296875 -5.796875 C 5.269531 -5.773438 5.1875 -5.773438 5.058594 -5.773438 C 4.925781 -5.773438 4.820312 -5.773438 4.765625 -5.796875 C 4.6875 -5.796875 4.632812 -5.796875 4.582031 -5.824219 C 4.449219 -5.878906 4.367188 -5.929688 4.289062 -5.957031 C 4.210938 -5.984375 4.128906 -6.011719 4.078125 -6.035156 C 3.996094 -6.0625 3.945312 -6.089844 3.890625 -6.117188 C 3.839844 -6.140625 3.785156 -6.195312 3.734375 -6.222656 L 3.335938 -6.488281 C 3.308594 -6.539062 3.257812 -6.59375 3.203125 -6.644531 C 3.152344 -6.699219 3.125 -6.777344 3.097656 -6.855469 C 3.070312 -6.9375 2.964844 -7.121094 2.804688 -7.414062 C 2.78125 -7.546875 2.726562 -7.675781 2.699219 -7.785156 C 2.648438 -7.890625 2.621094 -7.996094 2.59375 -8.128906 L 2.566406 -8.207031 C 2.566406 -8.417969 2.566406 -8.578125 2.542969 -8.65625 C 2.515625 -8.738281 2.515625 -8.789062 2.515625 -8.867188 C 2.488281 -8.949219 2.488281 -9 2.488281 -9.027344 C 2.460938 -9.054688 2.460938 -9.082031 2.460938 -9.105469 C 2.460938 -9.214844 2.4375 -9.320312 2.410156 -9.453125 L 2.410156 -9.53125 C 2.410156 -9.664062 2.410156 -9.742188 2.410156 -9.796875 C 2.382812 -9.847656 2.382812 -10.167969 2.382812 -10.722656 C 2.410156 -10.773438 2.410156 -10.933594 2.410156 -11.199219 C 2.410156 -11.542969 2.382812 -11.78125 2.355469 -11.886719 C 2.277344 -12.203125 2.117188 -12.441406 1.851562 -12.574219 C 1.667969 -12.679688 1.507812 -12.734375 1.324219 -12.734375 C 0.980469 -12.734375 0.714844 -12.574219 0.476562 -12.285156 C 0.34375 -12.125 0.265625 -11.914062 0.265625 -11.675781 L 0.292969 -11.488281 C 0.292969 -10.933594 0.292969 -10.644531 0.292969 -10.589844 C 0.265625 -10.511719 0.265625 -10.378906 0.265625 -10.140625 C 0.265625 -9.953125 0.265625 -9.820312 0.292969 -9.742188 C 0.292969 -9.664062 0.292969 -9.53125 0.316406 -9.371094 C 0.34375 -9.214844 0.34375 -9.054688 0.34375 -8.894531 L 0.476562 -7.863281 L 0.582031 -7.464844 C 0.582031 -7.414062 0.609375 -7.332031 0.636719 -7.253906 C 0.660156 -7.175781 0.714844 -6.988281 0.792969 -6.726562 C 0.898438 -6.378906 1.007812 -6.167969 1.113281 -6.035156 C 1.191406 -5.902344 1.296875 -5.746094 1.375 -5.558594 L 1.800781 -5.03125 C 2.089844 -4.792969 2.460938 -4.527344 2.859375 -4.261719 C 2.9375 -4.234375 3.019531 -4.183594 3.125 -4.128906 C 3.203125 -4.078125 3.308594 -4.023438 3.390625 -3.996094 C 3.46875 -3.972656 3.546875 -3.945312 3.628906 -3.917969 C 3.839844 -3.839844 4.078125 -3.757812 4.367188 -3.707031 L 4.660156 -3.652344 Z M 5.269531 -3.652344 "/></g></g></g><g fill="#ffffff" fill-opacity="1"><g transform="translate(158.663345, 57.222282)"><g><path d="M 4.554688 -3.441406 C 4.949219 -3.441406 5.320312 -3.496094 5.640625 -3.601562 L 5.71875 -3.628906 C 6.011719 -3.707031 6.300781 -3.867188 6.644531 -4.128906 C 6.988281 -4.394531 7.308594 -4.710938 7.625 -5.109375 C 7.652344 -5.136719 7.675781 -5.1875 7.703125 -5.242188 C 7.730469 -5.269531 7.863281 -5.453125 8.101562 -5.746094 C 8.339844 -6.035156 8.5 -6.273438 8.578125 -6.488281 L 8.628906 -6.539062 C 8.683594 -6.617188 8.761719 -6.75 8.867188 -6.910156 C 8.949219 -7.070312 9.027344 -7.226562 9.082031 -7.386719 L 9.320312 -7.835938 C 9.425781 -8.046875 9.53125 -8.234375 9.636719 -8.367188 C 9.929688 -8.761719 10.058594 -9.105469 10.058594 -9.371094 C 10.058594 -9.820312 9.820312 -10.140625 9.34375 -10.324219 C 9.265625 -10.378906 9.160156 -10.40625 9.027344 -10.40625 C 8.628906 -10.40625 8.3125 -10.21875 8.074219 -9.875 L 7.890625 -9.582031 C 7.703125 -9.265625 7.570312 -9.027344 7.492188 -8.894531 C 7.414062 -8.738281 7.332031 -8.605469 7.308594 -8.523438 C 7.253906 -8.445312 7.203125 -8.367188 7.175781 -8.285156 C 7.121094 -8.207031 7.070312 -8.101562 6.988281 -7.96875 C 6.964844 -7.914062 6.9375 -7.863281 6.910156 -7.785156 C 6.882812 -7.703125 6.804688 -7.625 6.726562 -7.492188 C 6.644531 -7.359375 6.539062 -7.226562 6.433594 -7.070312 L 5.984375 -6.460938 C 5.851562 -6.273438 5.71875 -6.140625 5.613281 -6.0625 L 5.558594 -6.011719 C 5.480469 -5.929688 5.402344 -5.851562 5.269531 -5.773438 C 5.242188 -5.746094 5.1875 -5.691406 5.109375 -5.664062 C 5.03125 -5.640625 4.925781 -5.585938 4.820312 -5.558594 L 4.472656 -5.585938 C 4.394531 -5.640625 4.289062 -5.664062 4.210938 -5.691406 C 4.128906 -5.71875 4.050781 -5.746094 3.996094 -5.773438 C 3.945312 -5.796875 3.890625 -5.851562 3.8125 -5.902344 C 3.734375 -5.929688 3.652344 -5.984375 3.628906 -6.011719 C 3.46875 -6.140625 3.363281 -6.273438 3.308594 -6.378906 C 3.230469 -6.460938 3.175781 -6.539062 3.152344 -6.59375 C 3.125 -6.644531 3.097656 -6.671875 3.070312 -6.699219 L 2.804688 -7.386719 C 2.726562 -7.546875 2.675781 -7.730469 2.621094 -7.941406 L 2.59375 -8.046875 C 2.566406 -8.234375 2.566406 -8.367188 2.542969 -8.472656 C 2.515625 -8.578125 2.515625 -8.65625 2.515625 -8.738281 C 2.488281 -8.789062 2.488281 -8.84375 2.488281 -8.921875 C 2.488281 -9 2.488281 -9.054688 2.488281 -9.132812 C 2.460938 -9.1875 2.460938 -9.796875 2.460938 -10.960938 C 2.460938 -11.332031 2.355469 -11.621094 2.171875 -11.808594 C 1.960938 -11.992188 1.695312 -12.097656 1.402344 -12.097656 C 1.136719 -12.097656 0.898438 -11.992188 0.6875 -11.808594 C 0.449219 -11.621094 0.34375 -11.332031 0.34375 -10.960938 C 0.34375 -9.769531 0.34375 -9.132812 0.371094 -9.054688 C 0.371094 -8.976562 0.371094 -8.867188 0.371094 -8.738281 C 0.371094 -8.605469 0.398438 -8.417969 0.421875 -8.207031 L 0.6875 -6.988281 C 0.769531 -6.804688 0.847656 -6.59375 0.898438 -6.378906 C 1.007812 -6.195312 1.085938 -6.011719 1.164062 -5.796875 L 1.402344 -5.402344 C 1.429688 -5.296875 1.507812 -5.1875 1.613281 -5.082031 C 1.695312 -4.949219 1.828125 -4.820312 1.960938 -4.632812 L 2.144531 -4.472656 C 2.382812 -4.261719 2.675781 -4.050781 3.019531 -3.867188 C 3.097656 -3.839844 3.203125 -3.785156 3.335938 -3.734375 C 3.441406 -3.679688 3.601562 -3.628906 3.839844 -3.574219 L 4.023438 -3.519531 Z M 1.484375 -12.894531 C 1.695312 -12.917969 1.878906 -13.027344 2.039062 -13.183594 C 2.277344 -13.421875 2.382812 -13.6875 2.382812 -13.925781 L 2.4375 -14.375 C 2.4375 -14.640625 2.355469 -14.878906 2.171875 -15.0625 C 1.960938 -15.300781 1.695312 -15.433594 1.375 -15.433594 C 0.820312 -15.433594 0.476562 -15.144531 0.316406 -14.5625 L 0.265625 -13.898438 C 0.265625 -13.449219 0.449219 -13.132812 0.847656 -13 C 1.058594 -12.917969 1.269531 -12.894531 1.484375 -12.894531 Z M 1.484375 -12.894531 "/></g></g></g><g fill="#ffffff" fill-opacity="1"><g transform="translate(166.603861, 57.222282)"><g><path d="M 5.1875 2.066406 L 4.84375 2.066406 L 4.472656 1.984375 C 4.449219 1.960938 4.394531 1.960938 4.34375 1.933594 C 4.289062 1.933594 4.234375 1.90625 4.15625 1.851562 C 4.078125 1.828125 3.972656 1.800781 3.890625 1.773438 C 3.679688 1.5625 3.574219 1.457031 3.574219 1.429688 L 3.546875 1.375 L 3.574219 1.246094 C 3.601562 1.191406 3.628906 1.136719 3.679688 1.085938 C 3.707031 1.058594 3.757812 1.007812 3.8125 0.925781 C 3.945312 0.742188 4.15625 0.582031 4.394531 0.503906 L 4.949219 0.316406 C 5.136719 0.238281 5.320312 0.210938 5.558594 0.183594 L 5.71875 0.160156 C 5.851562 0.105469 5.929688 0.078125 5.984375 0.078125 C 6.011719 0.078125 6.0625 0.078125 6.140625 0.0546875 C 6.195312 0.0273438 6.25 0.0273438 6.300781 0.0273438 C 6.328125 0.0273438 6.378906 0 6.433594 -0.0273438 C 6.488281 -0.0546875 6.566406 -0.0546875 6.644531 -0.078125 C 6.726562 -0.078125 6.855469 -0.105469 6.988281 -0.160156 C 6.988281 -0.0273438 6.964844 0.160156 6.910156 0.34375 C 6.910156 0.449219 6.882812 0.582031 6.804688 0.769531 C 6.777344 0.847656 6.777344 0.898438 6.75 0.925781 C 6.726562 0.980469 6.699219 1.03125 6.671875 1.058594 C 6.617188 1.21875 6.488281 1.402344 6.273438 1.613281 C 6.25 1.640625 6.195312 1.695312 6.167969 1.722656 C 6.117188 1.746094 6.0625 1.773438 6.035156 1.800781 C 6.011719 1.828125 5.957031 1.851562 5.929688 1.878906 C 5.902344 1.90625 5.851562 1.90625 5.796875 1.933594 C 5.71875 1.960938 5.640625 1.984375 5.507812 2.039062 Z M 5.296875 4.183594 L 5.957031 4.105469 C 6.566406 3.917969 7.015625 3.734375 7.253906 3.546875 C 7.703125 3.230469 8.023438 2.914062 8.207031 2.59375 C 8.390625 2.355469 8.523438 2.171875 8.578125 2.011719 L 8.65625 1.851562 C 8.84375 1.484375 8.949219 1.113281 9 0.769531 C 9.082031 0.316406 9.132812 -0.210938 9.132812 -0.769531 L 9.292969 -0.820312 C 9.371094 -0.875 9.453125 -0.898438 9.53125 -0.925781 C 9.609375 -0.953125 9.691406 -0.980469 9.769531 -1.007812 C 9.847656 -1.03125 9.953125 -1.085938 10.035156 -1.136719 C 10.113281 -1.164062 10.296875 -1.246094 10.5625 -1.351562 L 11.648438 -1.933594 L 12.046875 -2.199219 C 12.363281 -2.410156 12.734375 -2.726562 13.183594 -3.175781 C 13.449219 -3.441406 13.632812 -3.652344 13.765625 -3.8125 C 14.03125 -4.15625 14.191406 -4.316406 14.21875 -4.34375 C 14.242188 -4.367188 14.242188 -4.394531 14.269531 -4.421875 C 14.296875 -4.449219 14.324219 -4.5 14.375 -4.582031 C 14.402344 -4.632812 14.429688 -4.660156 14.457031 -4.6875 C 14.457031 -4.710938 14.457031 -4.710938 14.457031 -4.738281 C 14.535156 -4.820312 14.640625 -4.949219 14.71875 -5.109375 C 14.773438 -5.164062 14.824219 -5.214844 14.851562 -5.296875 C 14.984375 -5.453125 15.089844 -5.640625 15.195312 -5.824219 L 15.277344 -5.984375 C 15.566406 -6.40625 15.753906 -6.726562 15.832031 -6.964844 C 15.910156 -7.175781 15.964844 -7.386719 15.964844 -7.570312 C 15.964844 -7.757812 15.910156 -7.914062 15.777344 -8.074219 C 15.566406 -8.390625 15.277344 -8.550781 14.933594 -8.550781 L 14.800781 -8.550781 C 14.402344 -8.523438 14.109375 -8.285156 13.898438 -7.863281 C 13.609375 -7.308594 13.394531 -6.9375 13.265625 -6.75 L 13.238281 -6.699219 C 13.210938 -6.617188 13.132812 -6.511719 13.027344 -6.40625 L 12.867188 -6.140625 L 12.390625 -5.480469 C 12.3125 -5.375 12.230469 -5.269531 12.152344 -5.1875 L 12.097656 -5.136719 C 12.019531 -5.03125 11.886719 -4.871094 11.703125 -4.6875 C 11.359375 -4.34375 11.121094 -4.128906 10.960938 -4.023438 C 10.5625 -3.757812 10.21875 -3.546875 9.902344 -3.390625 C 9.769531 -3.335938 9.691406 -3.28125 9.664062 -3.257812 L 8.605469 -2.832031 C 8.605469 -2.886719 8.578125 -2.9375 8.550781 -2.964844 C 8.523438 -2.992188 8.5 -3.042969 8.472656 -3.097656 C 8.285156 -3.496094 8.074219 -3.785156 7.835938 -3.972656 C 7.464844 -4.421875 7.042969 -4.738281 6.566406 -4.976562 C 6.117188 -5.242188 5.773438 -5.402344 5.507812 -5.453125 C 5.214844 -5.585938 4.84375 -5.664062 4.34375 -5.71875 C 4.15625 -5.746094 3.867188 -5.773438 3.441406 -5.773438 C 3.46875 -5.796875 3.519531 -5.851562 3.601562 -5.929688 C 3.652344 -6.011719 3.707031 -6.0625 3.734375 -6.117188 C 3.757812 -6.167969 3.839844 -6.25 3.972656 -6.378906 C 4.105469 -6.511719 4.183594 -6.59375 4.210938 -6.644531 C 4.234375 -6.671875 4.289062 -6.75 4.394531 -6.882812 L 5.164062 -7.730469 C 5.296875 -7.863281 5.375 -7.941406 5.453125 -8.023438 C 5.507812 -8.101562 5.585938 -8.179688 5.691406 -8.261719 C 6.011719 -8.550781 6.539062 -9.054688 7.253906 -9.769531 L 7.675781 -10.273438 C 7.808594 -10.40625 7.890625 -10.484375 7.914062 -10.535156 C 7.914062 -10.5625 7.941406 -10.589844 7.96875 -10.617188 C 8.152344 -10.855469 8.234375 -11.066406 8.234375 -11.277344 C 8.234375 -11.382812 8.207031 -11.488281 8.179688 -11.597656 L 8.179688 -11.726562 C 8.179688 -11.992188 8.101562 -12.230469 7.941406 -12.441406 C 7.757812 -12.65625 7.492188 -12.761719 7.121094 -12.761719 L 6.804688 -12.761719 C 6.617188 -12.789062 6.355469 -12.789062 5.957031 -12.789062 C 5.585938 -12.789062 5.320312 -12.789062 5.136719 -12.761719 L 3.8125 -12.789062 C 3.679688 -12.8125 3.519531 -12.8125 3.363281 -12.8125 C 3.019531 -12.8125 2.832031 -12.8125 2.78125 -12.789062 C 2.726562 -12.761719 2.675781 -12.761719 2.648438 -12.761719 C 2.355469 -12.761719 2.144531 -12.734375 2.011719 -12.679688 C 1.90625 -12.679688 1.828125 -12.65625 1.746094 -12.628906 C 1.246094 -12.441406 0.980469 -12.097656 0.980469 -11.597656 C 0.980469 -11.304688 1.085938 -11.039062 1.324219 -10.855469 C 1.535156 -10.644531 1.773438 -10.535156 2.011719 -10.535156 C 2.144531 -10.535156 2.304688 -10.5625 2.4375 -10.617188 C 2.460938 -10.617188 2.488281 -10.617188 2.515625 -10.644531 C 2.515625 -10.644531 2.621094 -10.644531 2.804688 -10.644531 C 2.859375 -10.667969 3.019531 -10.667969 3.28125 -10.695312 L 3.390625 -10.695312 C 3.546875 -10.695312 3.652344 -10.695312 3.734375 -10.667969 L 5.136719 -10.644531 C 5.109375 -10.644531 5.109375 -10.644531 5.109375 -10.617188 C 5.082031 -10.589844 5.058594 -10.5625 5.03125 -10.535156 C 4.976562 -10.511719 4.898438 -10.429688 4.792969 -10.324219 C 4.6875 -10.21875 4.582031 -10.113281 4.449219 -10.007812 C 4.316406 -9.875 4.15625 -9.742188 4.023438 -9.582031 L 3.945312 -9.503906 C 3.734375 -9.320312 3.496094 -9.082031 3.230469 -8.761719 C 3.097656 -8.65625 2.9375 -8.445312 2.699219 -8.152344 C 2.648438 -8.074219 2.59375 -7.996094 2.515625 -7.914062 C 2.4375 -7.835938 2.328125 -7.757812 2.222656 -7.625 L 1.164062 -6.40625 C 1.164062 -6.378906 1.136719 -6.355469 1.085938 -6.273438 C 1.007812 -6.195312 0.953125 -6.140625 0.925781 -6.117188 C 0.898438 -6.089844 0.875 -6.0625 0.847656 -6.035156 C 0.449219 -5.746094 0.265625 -5.402344 0.265625 -5.003906 L 0.292969 -4.660156 C 0.292969 -4.394531 0.398438 -4.15625 0.609375 -3.945312 C 0.820312 -3.707031 1.085938 -3.601562 1.402344 -3.601562 C 1.535156 -3.601562 1.613281 -3.601562 1.667969 -3.628906 C 1.695312 -3.652344 2.066406 -3.652344 2.753906 -3.652344 C 3.734375 -3.652344 4.316406 -3.628906 4.472656 -3.546875 C 4.632812 -3.519531 4.765625 -3.496094 4.871094 -3.441406 C 4.976562 -3.441406 5.1875 -3.335938 5.507812 -3.152344 C 5.640625 -3.097656 5.746094 -3.042969 5.824219 -2.992188 C 5.878906 -2.9375 5.957031 -2.886719 6.0625 -2.804688 C 6.140625 -2.726562 6.222656 -2.648438 6.300781 -2.566406 C 6.378906 -2.488281 6.433594 -2.382812 6.488281 -2.277344 C 6.511719 -2.277344 6.539062 -2.25 6.539062 -2.222656 L 5.878906 -2.066406 C 5.585938 -2.011719 5.402344 -1.984375 5.347656 -1.960938 C 5.269531 -1.933594 5.242188 -1.933594 5.214844 -1.90625 L 4.976562 -1.878906 C 4.582031 -1.800781 4.234375 -1.695312 3.972656 -1.589844 L 3.8125 -1.535156 C 3.097656 -1.269531 2.566406 -0.953125 2.277344 -0.554688 L 2.089844 -0.316406 C 1.800781 0.0273438 1.589844 0.421875 1.457031 0.875 L 1.429688 1.535156 C 1.484375 1.746094 1.535156 1.933594 1.613281 2.117188 C 1.667969 2.304688 1.746094 2.488281 1.878906 2.648438 C 1.984375 2.804688 2.089844 2.9375 2.171875 3.042969 L 2.25 3.152344 C 2.460938 3.335938 2.648438 3.46875 2.832031 3.574219 C 3.019531 3.679688 3.203125 3.785156 3.390625 3.867188 L 3.996094 4.050781 L 4.632812 4.15625 Z M 5.296875 4.183594 "/></g></g></g></svg>